<svg id="visual" viewBox="0 0 960 540" width="960" height="540" xmlns="http://www.w3.org/2000/svg"
    xmlns:xlink="http://www.w3.org/1999/xlink" version="1.1">
    <rect x="0" y="0" width="960" height="540" fill="#c00928"></rect>
    <defs>
        <linearGradient id="grad1_0" x1="43.8%" y1="0%" x2="100%" y2="100%">
            <stop offset="14.444444444444446%" stop-color="#c00928" stop-opacity="1"></stop>
            <stop offset="85.55555555555554%" stop-color="#c00928" stop-opacity="1"></stop>
        </linearGradient>
    </defs>
    <defs>
        <linearGradient id="grad2_0" x1="0%" y1="0%" x2="56.3%" y2="100%">
            <stop offset="14.444444444444446%" stop-color="#c00928" stop-opacity="1"></stop>
            <stop offset="85.55555555555554%" stop-color="#c00928" stop-opacity="1"></stop>
        </linearGradient>
    </defs>
    <g transform="translate(960, 0)">
        <path
            d="M0 378C-40.3 369.8 -80.7 361.5 -110.6 340.5C-140.6 319.4 -160.2 285.5 -194 267C-227.8 248.4 -275.8 245.2 -305.8 222.2C-335.8 199.1 -347.6 156.2 -356.6 115.9C-365.7 75.5 -371.8 37.8 -378 0L0 0Z"
            fill="#db1a3a"></path>
    </g>
    <g transform="translate(0, 540)">
        <path
            d="M0 -378C39.9 -371.4 79.8 -364.8 113.4 -349C147 -333.2 174.4 -308.2 209.3 -288C244.2 -267.8 286.6 -252.5 305.8 -222.2C325 -191.8 320.9 -146.5 329.1 -106.9C337.2 -67.4 357.6 -33.7 378 0L0 0Z"
            fill="#db1a3a"></path>
    </g>
</svg>